<svg xmlns="http://www.w3.org/2000/svg" xmlns:xlink="http://www.w3.org/1999/xlink" xmlns:lucid="lucid" width="1042" height="833"><g transform="translate(-869 -1329)" lucid:page-tab-id="0_0"><path d="M0 1000h2000v1500H0z" fill="#fff"/><path d="M1043.6 1519.95l-.08 10.2m-.08 10.17l-.14 20.38m-.07 10.2l-.14 20.36m-.08 10.2l-.14 20.36m-.07 10.2l-.13 20.36m-.07 10.2l-.14 20.37m-.07 10.18l-.15 20.38m-.07 10.2l-.14 20.37m-.07 10.2l-.14 20.36m-.07 10.2l-.14 20.36m-.07 10.18l-.14 20.38m-.06 10.18l-.14 20.38m-.07 10.18l-.14 20.38m-.08 10.2l-.14 20.36m-.07 10.2l-.13 20.36m-.08 10.2l-.14 20.36m-.08 10.2l-.14 20.37m-.07 10.18l-.07 10.2" stroke="#333" fill="none"/><path d="M1044.1 1519.97h-1v-.52h1z" stroke="#333" stroke-width=".05" fill="#333"/><path d="M1040 2039.5v.5" stroke="#333" fill="none"/><path d="M1024.66 1548a8 8 0 0 1 8-8h24a8 8 0 0 1 8 8v444a8 8 0 0 1-8 8h-24a8 8 0 0 1-8-8z" stroke="#f2f2f2" fill="#ced4db"/><path d="M1404.42 1519.95v9.92m0 9.92v19.83m0 9.9v19.85m0 9.92v19.84m0 9.92v19.83m0 9.9v19.85m0 9.92v19.84m0 9.93v19.83m0 9.92v19.84m0 9.92v19.84m0 9.9v9.93l-.03.36-.1.34-.12.32-.18.3-.22.26-.27.22-.3.18-.3.14-.34.08-.35.02-.34.03-.33.08-.32.14-.3.18-.25.22-.23.27-.18.3-.13.3-.07.35-.03.34v9.9m0 9.93v19.84m0 9.93v19.84m0 9.92v19.82m0 9.92v19.84m0 9.92v19.84m0 9.92v19.83m0 9.9v19.85m0 9.92v19.84m0 9.92v19.84m0 9.92v9.92" stroke="#333" fill="none"/><path d="M1404.92 1519.96h-1v-.5h1z" stroke="#333" stroke-width=".05" fill="#333"/><path d="M1400 2119.5v.5" stroke="#333" fill="none"/><path d="M1000 2008a8 8 0 0 1 8-8h70.58a8 8 0 0 1 8 8v64a8 8 0 0 1-8 8H1008a8 8 0 0 1-8-8z" fill="none"/><path d="M1008.66 2008l69.26 64m0-64l-69.26 64" stroke="#5d646f" stroke-width="8" fill="none"/><path d="M1384.42 1548a8 8 0 0 1 8-8h24a8 8 0 0 1 8 8v524a8 8 0 0 1-8 8h-24a8 8 0 0 1-8-8z" stroke="#f2f2f2" fill="#ced4db"/><path d="M948.55 1405.45a8 8 0 0 1 8-8h174.08a8 8 0 0 1 8 8v106a8 8 0 0 1-8 8H956.55a8 8 0 0 1-8-8z" stroke="#000" stroke-opacity="0" fill="#6db1ff"/><use xlink:href="#a" transform="matrix(1,0,0,1,956.5508274182996,1405.450156647517) translate(64.85802469135803 56.55555555555555)"/><path d="M1309.38 1405.45a8 8 0 0 1 8-8h174.08a8 8 0 0 1 8 8v106a8 8 0 0 1-8 8h-174.08a8 8 0 0 1-8-8z" stroke="#000" stroke-opacity="0" fill="#6db1ff"/><use xlink:href="#b" transform="matrix(1,0,0,1,1317.3848257465197,1405.450156647517) translate(37.74691358024691 56.55555555555555)"/><path d="M1081.55 1891.45h4.76m4.78 0h9.53m4.78 0h9.53m4.78 0h9.53m4.78 0h9.53m4.78 0h9.53m4.78 0h9.53m4.78 0h9.53m4.78 0h9.53m4.78 0h9.53m4.78 0h9.58m4.8 0h9.64m4.82 0h9.62m4.82 0h9.63m4.8 0h9.63m4.82 0h9.63m4.8 0h9.64m4.8 0h9.64m4.82 0h9.63m4.82 0h9.63m4.8 0h9.64m4.8 0h4.82" stroke="#333" fill="none"/><path d="M1066.78 1891.45l14.27-4.63v9.27z" stroke="#333" fill="#333"/><path d="M1383.92 1891.95h-.5v-1h.5z" stroke="#333" stroke-width=".05" fill="#333"/><use xlink:href="#c" transform="matrix(1,0,0,1,1171.258290676556,1895.450466488654) translate(0.005000000000002558 14.222222222222223)"/><path d="M1065.66 1626.8h297.2a.06.06 0 0 0 .06-.07.06.06 0 0 1 .06-.06h4.56" stroke="#3a414a" fill="none"/><path d="M1065.67 1627.3h-.5v-1h.5z" stroke="#3a414a" stroke-width=".05" fill="#3a414a"/><path d="M1382.3 1626.67l-14.26 4.63v-9.27z" stroke="#3a414a" fill="#3a414a"/><use xlink:href="#d" transform="matrix(1,0,0,1,1170.595108765139,1601.1853271750647) translate(0.005000000000002558 14.4)"/><path d="M1660 1405.45a8 8 0 0 1 8-8h174.08a8 8 0 0 1 8 8v106a8 8 0 0 1-8 8H1668a8 8 0 0 1-8-8z" stroke="#000" stroke-opacity="0" fill="#6db1ff"/><use xlink:href="#e" transform="matrix(1,0,0,1,1668,1405.4501566475167) translate(6.5864197530864175 56.55555555555555)"/><use xlink:href="#f" transform="matrix(1,0,0,1,1668,1405.4501566475167) translate(58.833333333333336 56.55555555555555)"/><use xlink:href="#g" transform="matrix(1,0,0,1,1668,1405.4501566475167) translate(139.7716049382716 56.55555555555555)"/><path d="M1760 1519.95v10m0 9.98v20m0 9.98v20m0 10v19.97m0 10v19.98m0 10v19.98m0 10v19.98m0 10v20m0 9.98v19.98m0 10v19.98m0 10v19.98m0 10v19.97m0 10v19.97m0 10v19.98m0 10v19.98m0 10v19.97m0 10v19.98m0 10v19.98m0 10v19.98m0 10v19.97m0 10v10" stroke="#333" fill="none"/><path d="M1760.5 1519.96h-1v-.5h1z" stroke="#333" stroke-width=".05" fill="#333"/><path d="M1760 2119.5v.5" stroke="#333" fill="none"/><path d="M1740 1548a8 8 0 0 1 8-8h24a8 8 0 0 1 8 8v524a8 8 0 0 1-8 8h-24a8 8 0 0 1-8-8z" stroke="#f2f2f2" fill="#ced4db"/><path d="M1425.42 1680H1723.12" stroke="#3a414a" fill="none"/><path d="M1425.43 1680.5h-.5v-1h.5z" stroke="#3a414a" stroke-width=".05" fill="#3a414a"/><path d="M1737.88 1680l-14.27 4.64.02-9.28z" stroke="#3a414a" fill="#3a414a"/><use xlink:href="#h" transform="matrix(1,0,0,1,1526.7862011312584,1654.4001324816484) translate(0.005000000000002558 14.4)"/><path d="M1448.34 1834.67h4.76m4.77 0h9.53m4.77 0h9.53m4.77 0h9.53m4.77 0h9.53m4.77 0h9.53m4.77 0h9.53m4.77 0h9.53m4.77 0h9.53m4.77 0h9.53m4.77 0h9.58m4.8 0h9.64m4.8 0h9.63m4.82 0h9.63m4.8 0h9.64m4.82 0h9.63m4.8 0h9.64m4.82 0h9.63m4.82 0h9.63m4.8 0h9.64m4.8 0h9.64m4.82 0h4.8" stroke="#333" fill="none"/><path d="M1433.57 1834.67l14.27-4.64v9.27z" stroke="#333" fill="#333"/><path d="M1750.2 1834.67h.5" stroke="#333" fill="none"/><g><use xlink:href="#i" transform="matrix(1,0,0,1,1507.9259295995607,1838.6666667426243) translate(0.0049999999999954525 14.222222222222223)"/><use xlink:href="#j" transform="matrix(1,0,0,1,1507.9259295995607,1838.6666667426243) translate(29.63462962962963 14.222222222222223)"/><use xlink:href="#k" transform="matrix(1,0,0,1,1507.9259295995607,1838.6666667426243) translate(93.78277777777778 14.222222222222223)"/></g><defs><path fill="#333" d="M212-179c-10-28-35-45-73-45-59 0-87 40-87 99 0 60 29 101 89 101 43 0 62-24 78-52l27 14C228-24 195 4 139 4 59 4 22-46 18-125c-6-104 99-153 187-111 19 9 31 26 39 46" id="l"/><path fill="#333" d="M24 0v-261h32V0H24" id="m"/><path fill="#333" d="M24-231v-30h32v30H24zM24 0v-190h32V0H24" id="n"/><path fill="#333" d="M100-194c63 0 86 42 84 106H49c0 40 14 67 53 68 26 1 43-12 49-29l28 8c-11 28-37 45-77 45C44 4 14-33 15-96c1-61 26-98 85-98zm52 81c6-60-76-77-97-28-3 7-6 17-6 28h103" id="o"/><path fill="#333" d="M117-194c89-4 53 116 60 194h-32v-121c0-31-8-49-39-48C34-167 62-67 57 0H25l-1-190h30c1 10-1 24 2 32 11-22 29-35 61-36" id="p"/><path fill="#333" d="M59-47c-2 24 18 29 38 22v24C64 9 27 4 27-40v-127H5v-23h24l9-43h21v43h35v23H59v120" id="q"/><g id="a"><use transform="matrix(0.04938271604938272,0,0,0.04938271604938272,0,0)" xlink:href="#l"/><use transform="matrix(0.04938271604938272,0,0,0.04938271604938272,12.790123456790125,0)" xlink:href="#m"/><use transform="matrix(0.04938271604938272,0,0,0.04938271604938272,16.69135802469136,0)" xlink:href="#n"/><use transform="matrix(0.04938271604938272,0,0,0.04938271604938272,20.592592592592595,0)" xlink:href="#o"/><use transform="matrix(0.04938271604938272,0,0,0.04938271604938272,30.46913580246914,0)" xlink:href="#p"/><use transform="matrix(0.04938271604938272,0,0,0.04938271604938272,40.345679012345684,0)" xlink:href="#q"/><path fill="#333" d="M-.9 1.23h47.07v1.3H-.9z"/></g><path fill="#333" d="M240 0l2-218c-23 76-54 145-80 218h-23L58-218 59 0H30v-248h44l77 211c21-75 51-140 76-211h43V0h-30" id="r"/><path fill="#333" d="M96-169c-40 0-48 33-48 73s9 75 48 75c24 0 41-14 43-38l32 2c-6 37-31 61-74 61-59 0-76-41-82-99-10-93 101-131 147-64 4 7 5 14 7 22l-32 3c-4-21-16-35-41-35" id="s"/><path fill="#333" d="M114-163C36-179 61-72 57 0H25l-1-190h30c1 12-1 29 2 39 6-27 23-49 58-41v29" id="t"/><path fill="#333" d="M100-194c62-1 85 37 85 99 1 63-27 99-86 99S16-35 15-95c0-66 28-99 85-99zM99-20c44 1 53-31 53-75 0-43-8-75-51-75s-53 32-53 75 10 74 51 75" id="u"/><path fill="#333" d="M135-143c-3-34-86-38-87 0 15 53 115 12 119 90S17 21 10-45l28-5c4 36 97 45 98 0-10-56-113-15-118-90-4-57 82-63 122-42 12 7 21 19 24 35" id="v"/><path fill="#333" d="M108 0H70L1-190h34L89-25l56-165h34" id="w"/><g id="b"><use transform="matrix(0.04938271604938272,0,0,0.04938271604938272,0,0)" xlink:href="#r"/><use transform="matrix(0.04938271604938272,0,0,0.04938271604938272,14.765432098765434,0)" xlink:href="#n"/><use transform="matrix(0.04938271604938272,0,0,0.04938271604938272,18.666666666666668,0)" xlink:href="#s"/><use transform="matrix(0.04938271604938272,0,0,0.04938271604938272,27.555555555555557,0)" xlink:href="#t"/><use transform="matrix(0.04938271604938272,0,0,0.04938271604938272,33.4320987654321,0)" xlink:href="#u"/><use transform="matrix(0.04938271604938272,0,0,0.04938271604938272,43.308641975308646,0)" xlink:href="#v"/><use transform="matrix(0.04938271604938272,0,0,0.04938271604938272,52.19753086419754,0)" xlink:href="#o"/><use transform="matrix(0.04938271604938272,0,0,0.04938271604938272,62.074074074074076,0)" xlink:href="#t"/><use transform="matrix(0.04938271604938272,0,0,0.04938271604938272,67.95061728395062,0)" xlink:href="#w"/><use transform="matrix(0.04938271604938272,0,0,0.04938271604938272,76.8395061728395,0)" xlink:href="#n"/><use transform="matrix(0.04938271604938272,0,0,0.04938271604938272,80.74074074074075,0)" xlink:href="#s"/><use transform="matrix(0.04938271604938272,0,0,0.04938271604938272,89.62962962962963,0)" xlink:href="#o"/><path fill="#333" d="M-.9 1.23h101.3v1.3H-.9z"/></g><path fill="#3a414a" d="M135-143c-3-34-86-38-87 0 15 53 115 12 119 90S17 21 10-45l28-5c4 36 97 45 98 0-10-56-113-15-118-90-4-57 82-63 122-42 12 7 21 19 24 35" id="x"/><path fill="#3a414a" d="M100-194c62-1 85 37 85 99 1 63-27 99-86 99S16-35 15-95c0-66 28-99 85-99zM99-20c44 1 53-31 53-75 0-43-8-75-51-75s-53 32-53 75 10 74 51 75" id="y"/><path fill="#3a414a" d="M96-169c-40 0-48 33-48 73s9 75 48 75c24 0 41-14 43-38l32 2c-6 37-31 61-74 61-59 0-76-41-82-99-10-93 101-131 147-64 4 7 5 14 7 22l-32 3c-4-21-16-35-41-35" id="z"/><path fill="#3a414a" d="M143 0L79-87 56-68V0H24v-261h32v163l83-92h37l-77 82L181 0h-38" id="A"/><path fill="#3a414a" d="M100-194c63 0 86 42 84 106H49c0 40 14 67 53 68 26 1 43-12 49-29l28 8c-11 28-37 45-77 45C44 4 14-33 15-96c1-61 26-98 85-98zm52 81c6-60-76-77-97-28-3 7-6 17-6 28h103" id="B"/><path fill="#3a414a" d="M59-47c-2 24 18 29 38 22v24C64 9 27 4 27-40v-127H5v-23h24l9-43h21v43h35v23H59v120" id="C"/><path fill="#3a414a" d="M33 0v-38h34V0H33" id="D"/><path fill="#3a414a" d="M117-194c89-4 53 116 60 194h-32v-121c0-31-8-49-39-48C34-167 62-67 57 0H25l-1-190h30c1 10-1 24 2 32 11-22 29-35 61-36" id="E"/><path fill="#3a414a" d="M85-194c31 0 48 13 60 33l-1-100h32l1 261h-30c-2-10 0-23-3-31C134-8 116 4 85 4 32 4 16-35 15-94c0-66 23-100 70-100zm9 24c-40 0-46 34-46 75 0 40 6 74 45 74 42 0 51-32 51-76 0-42-9-74-50-73" id="F"/><path fill="#3a414a" d="M87 75C49 33 22-17 22-94c0-76 28-126 65-167h31c-38 41-64 92-64 168S80 34 118 75H87" id="G"/><path fill="#3a414a" d="M33-261c38 41 65 92 65 168S71 34 33 75H2C39 34 66-17 66-93S39-220 2-261h31" id="H"/><g id="c"><use transform="matrix(0.04938271604938272,0,0,0.04938271604938272,0,0)" xlink:href="#x"/><use transform="matrix(0.04938271604938272,0,0,0.04938271604938272,8.88888888888889,0)" xlink:href="#y"/><use transform="matrix(0.04938271604938272,0,0,0.04938271604938272,18.765432098765434,0)" xlink:href="#z"/><use transform="matrix(0.04938271604938272,0,0,0.04938271604938272,27.654320987654323,0)" xlink:href="#A"/><use transform="matrix(0.04938271604938272,0,0,0.04938271604938272,36.543209876543216,0)" xlink:href="#B"/><use transform="matrix(0.04938271604938272,0,0,0.04938271604938272,46.41975308641976,0)" xlink:href="#C"/><use transform="matrix(0.04938271604938272,0,0,0.04938271604938272,51.35802469135803,0)" xlink:href="#D"/><use transform="matrix(0.04938271604938272,0,0,0.04938271604938272,56.2962962962963,0)" xlink:href="#x"/><use transform="matrix(0.04938271604938272,0,0,0.04938271604938272,65.18518518518519,0)" xlink:href="#B"/><use transform="matrix(0.04938271604938272,0,0,0.04938271604938272,75.06172839506173,0)" xlink:href="#E"/><use transform="matrix(0.04938271604938272,0,0,0.04938271604938272,84.93827160493828,0)" xlink:href="#F"/><use transform="matrix(0.04938271604938272,0,0,0.04938271604938272,94.81481481481482,0)" xlink:href="#G"/><use transform="matrix(0.04938271604938272,0,0,0.04938271604938272,100.69135802469137,0)" xlink:href="#H"/></g><g id="d"><use transform="matrix(0.05,0,0,0.05,0,0)" xlink:href="#x"/><use transform="matrix(0.05,0,0,0.05,9,0)" xlink:href="#y"/><use transform="matrix(0.05,0,0,0.05,19,0)" xlink:href="#z"/><use transform="matrix(0.05,0,0,0.05,28,0)" xlink:href="#A"/><use transform="matrix(0.05,0,0,0.05,37,0)" xlink:href="#B"/><use transform="matrix(0.05,0,0,0.05,47,0)" xlink:href="#C"/><use transform="matrix(0.05,0,0,0.05,52,0)" xlink:href="#D"/><use transform="matrix(0.05,0,0,0.05,57,0)" xlink:href="#x"/><use transform="matrix(0.05,0,0,0.05,66,0)" xlink:href="#B"/><use transform="matrix(0.05,0,0,0.05,76,0)" xlink:href="#E"/><use transform="matrix(0.05,0,0,0.05,86,0)" xlink:href="#F"/><use transform="matrix(0.05,0,0,0.05,96,0)" xlink:href="#G"/><use transform="matrix(0.05,0,0,0.05,101.95,0)" xlink:href="#H"/></g><g id="e"><use transform="matrix(0.04938271604938272,0,0,0.04938271604938272,0,0)" xlink:href="#r"/><use transform="matrix(0.04938271604938272,0,0,0.04938271604938272,14.765432098765434,0)" xlink:href="#u"/><use transform="matrix(0.04938271604938272,0,0,0.04938271604938272,24.641975308641978,0)" xlink:href="#w"/><use transform="matrix(0.04938271604938272,0,0,0.04938271604938272,33.53086419753087,0)" xlink:href="#n"/><use transform="matrix(0.04938271604938272,0,0,0.04938271604938272,37.4320987654321,0)" xlink:href="#o"/><path fill="#333" d="M-.9 1.23h54.03v1.3H-.9z"/></g><path fill="#333" d="M30-248c118-7 216 8 213 122C240-48 200 0 122 0H30v-248zM63-27c89 8 146-16 146-99s-60-101-146-95v194" id="I"/><path fill="#333" d="M141-36C126-15 110 5 73 4 37 3 15-17 15-53c-1-64 63-63 125-63 3-35-9-54-41-54-24 1-41 7-42 31l-33-3c5-37 33-52 76-52 45 0 72 20 72 64v82c-1 20 7 32 28 27v20c-31 9-61-2-59-35zM48-53c0 20 12 33 32 33 41-3 63-29 60-74-43 2-92-5-92 41" id="J"/><path fill="#333" d="M115-194c53 0 69 39 70 98 0 66-23 100-70 100C84 3 66-7 56-30L54 0H23l1-261h32v101c10-23 28-34 59-34zm-8 174c40 0 45-34 45-75 0-40-5-75-45-74-42 0-51 32-51 76 0 43 10 73 51 73" id="K"/><g id="f"><use transform="matrix(0.04938271604938272,0,0,0.04938271604938272,0,0)" xlink:href="#I"/><use transform="matrix(0.04938271604938272,0,0,0.04938271604938272,12.790123456790125,0)" xlink:href="#J"/><use transform="matrix(0.04938271604938272,0,0,0.04938271604938272,22.66666666666667,0)" xlink:href="#q"/><use transform="matrix(0.04938271604938272,0,0,0.04938271604938272,27.604938271604947,0)" xlink:href="#J"/><use transform="matrix(0.04938271604938272,0,0,0.04938271604938272,37.48148148148149,0)" xlink:href="#K"/><use transform="matrix(0.04938271604938272,0,0,0.04938271604938272,47.35802469135803,0)" xlink:href="#J"/><use transform="matrix(0.04938271604938272,0,0,0.04938271604938272,57.23456790123457,0)" xlink:href="#v"/><use transform="matrix(0.04938271604938272,0,0,0.04938271604938272,66.12345679012347,0)" xlink:href="#o"/><path fill="#333" d="M-.9 1.23h82.73v1.3H-.9z"/></g><path fill="#333" d="M205 0l-28-72H64L36 0H1l101-248h38L239 0h-34zm-38-99l-47-123c-12 45-31 82-46 123h93" id="L"/><path fill="#333" d="M30-248c87 1 191-15 191 75 0 78-77 80-158 76V0H30v-248zm33 125c57 0 124 11 124-50 0-59-68-47-124-48v98" id="M"/><path fill="#333" d="M33 0v-248h34V0H33" id="N"/><g id="g"><use transform="matrix(0.04938271604938272,0,0,0.04938271604938272,0,0)" xlink:href="#L"/><use transform="matrix(0.04938271604938272,0,0,0.04938271604938272,11.851851851851853,0)" xlink:href="#M"/><use transform="matrix(0.04938271604938272,0,0,0.04938271604938272,23.703703703703706,0)" xlink:href="#N"/><path fill="#333" d="M-.9 1.23h30.43v1.3H-.9z"/></g><path fill="#3a414a" d="M114-163C36-179 61-72 57 0H25l-1-190h30c1 12-1 29 2 39 6-27 23-49 58-41v29" id="O"/><path fill="#3a414a" d="M145-31C134-9 116 4 85 4 32 4 16-35 15-94c0-59 17-99 70-100 32-1 48 14 60 33 0-11-1-24 2-32h30l-1 268h-32zM93-21c41 0 51-33 51-76s-8-73-50-73c-40 0-46 35-46 75s5 74 45 74" id="P"/><path fill="#3a414a" d="M84 4C-5 8 30-112 23-190h32v120c0 31 7 50 39 49 72-2 45-101 50-169h31l1 190h-30c-1-10 1-25-2-33-11 22-28 36-60 37" id="Q"/><path fill="#3a414a" d="M177-190C167-65 218 103 67 71c-23-6-38-20-44-43l32-5c15 47 100 32 89-28v-30C133-14 115 1 83 1 29 1 15-40 15-95c0-56 16-97 71-98 29-1 48 16 59 35 1-10 0-23 2-32h30zM94-22c36 0 50-32 50-73 0-42-14-75-50-75-39 0-46 34-46 75s6 73 46 73" id="R"/><g id="h"><use transform="matrix(0.05,0,0,0.05,0,0)" xlink:href="#O"/><use transform="matrix(0.05,0,0,0.05,5.95,0)" xlink:href="#B"/><use transform="matrix(0.05,0,0,0.05,15.949999999999998,0)" xlink:href="#P"/><use transform="matrix(0.05,0,0,0.05,25.950000000000003,0)" xlink:href="#Q"/><use transform="matrix(0.05,0,0,0.05,35.95,0)" xlink:href="#B"/><use transform="matrix(0.05,0,0,0.05,45.95,0)" xlink:href="#x"/><use transform="matrix(0.05,0,0,0.05,54.95,0)" xlink:href="#C"/><use transform="matrix(0.05,0,0,0.05,59.95,0)" xlink:href="#x"/><use transform="matrix(0.05,0,0,0.05,68.95,0)" xlink:href="#D"/><use transform="matrix(0.05,0,0,0.05,73.95,0)" xlink:href="#R"/><use transform="matrix(0.05,0,0,0.05,83.95,0)" xlink:href="#B"/><use transform="matrix(0.05,0,0,0.05,93.95,0)" xlink:href="#C"/><use transform="matrix(0.05,0,0,0.05,98.95,0)" xlink:href="#G"/><use transform="matrix(0.05,0,0,0.05,104.9,0)" xlink:href="#H"/></g><g id="i"><use transform="matrix(0.04938271604938272,0,0,0.04938271604938272,0,0)" xlink:href="#R"/><use transform="matrix(0.04938271604938272,0,0,0.04938271604938272,9.876543209876544,0)" xlink:href="#B"/><use transform="matrix(0.04938271604938272,0,0,0.04938271604938272,19.75308641975309,0)" xlink:href="#C"/></g><g id="j"><use transform="matrix(0.04938271604938272,0,0,0.04938271604938272,0,0)" xlink:href="#O"/><use transform="matrix(0.04938271604938272,0,0,0.04938271604938272,5.8765432098765435,0)" xlink:href="#B"/><use transform="matrix(0.04938271604938272,0,0,0.04938271604938272,15.753086419753087,0)" xlink:href="#P"/><use transform="matrix(0.04938271604938272,0,0,0.04938271604938272,25.629629629629633,0)" xlink:href="#Q"/><use transform="matrix(0.04938271604938272,0,0,0.04938271604938272,35.50617283950618,0)" xlink:href="#B"/><use transform="matrix(0.04938271604938272,0,0,0.04938271604938272,45.38271604938272,0)" xlink:href="#x"/><use transform="matrix(0.04938271604938272,0,0,0.04938271604938272,54.27160493827161,0)" xlink:href="#C"/></g><path fill="#3a414a" d="M115-194c55 1 70 41 70 98S169 2 115 4C84 4 66-9 55-30l1 105H24l-1-265h31l2 30c10-21 28-34 59-34zm-8 174c40 0 45-34 45-75s-6-73-45-74c-42 0-51 32-51 76 0 43 10 73 51 73" id="S"/><g id="k"><use transform="matrix(0.04938271604938272,0,0,0.04938271604938272,0,0)" xlink:href="#O"/><use transform="matrix(0.04938271604938272,0,0,0.04938271604938272,5.8765432098765435,0)" xlink:href="#B"/><use transform="matrix(0.04938271604938272,0,0,0.04938271604938272,15.753086419753087,0)" xlink:href="#x"/><use transform="matrix(0.04938271604938272,0,0,0.04938271604938272,24.641975308641978,0)" xlink:href="#S"/><use transform="matrix(0.04938271604938272,0,0,0.04938271604938272,34.51851851851852,0)" xlink:href="#y"/><use transform="matrix(0.04938271604938272,0,0,0.04938271604938272,44.39506172839506,0)" xlink:href="#E"/><use transform="matrix(0.04938271604938272,0,0,0.04938271604938272,54.27160493827161,0)" xlink:href="#x"/><use transform="matrix(0.04938271604938272,0,0,0.04938271604938272,63.1604938271605,0)" xlink:href="#B"/></g></defs></g></svg>